<svg width="100" height="12" viewBox="0 0 100 12" xmlns="http://www.w3.org/2000/svg">
  <!-- Mayan-inspired zigzag and step patterns -->
  <defs>
    <pattern id="mayan-zigzag" width="50" height="12" patternUnits="userSpaceOnUse">
      <!-- Zigzag base -->
      <path d="M0,6 L5,2 L10,6 L15,2 L20,6 L25,2 L30,6 L35,2 L40,6 L45,2 L50,6" 
            fill="none" stroke="#F5A74D" stroke-width="1.5" />
      
      <!-- Step pattern overlay -->
      <path d="M0,10 L4,10 L4,8 L8,8 L8,10 L12,10 L12,8 L16,8 L16,10 L20,10 L20,8 L24,8 L24,10 L28,10 L28,8 L32,8 L32,10 L36,10 L36,8 L40,8 L40,10 L44,10 L44,8 L48,8 L48,10 L50,10" 
            fill="none" stroke="#2ACBAB" stroke-width="1" />
      
      <!-- Decorative dots -->
      <circle cx="5" cy="4" r="1" fill="#E05D4D" />
      <circle cx="15" cy="4" r="1" fill="#E05D4D" />
      <circle cx="25" cy="4" r="1" fill="#E05D4D" />
      <circle cx="35" cy="4" r="1" fill="#E05D4D" />
      <circle cx="45" cy="4" r="1" fill="#E05D4D" />
      
      <!-- Small square symbols -->
      <rect x="8" y="2" width="2" height="2" fill="#2ACBAB" />
      <rect x="28" y="2" width="2" height="2" fill="#2ACBAB" />
      <rect x="48" y="2" width="2" height="2" fill="#2ACBAB" />
    </pattern>
  </defs>
  
  <!-- Apply the pattern -->
  <rect width="100" height="12" fill="url(#mayan-zigzag)" opacity="0.9" />
</svg> 