<svg xmlns="http://www.w3.org/2000/svg" width="100" height="100" viewBox="0 0 100 100">
  <defs>
    <pattern id="palmar-pattern-gold" patternUnits="userSpaceOnUse" width="100" height="100">
      <rect width="100" height="100" fill="transparent" />
      
      <!-- Spiral pattern inspired by the image -->
      <path d="M20,20 L20,30 L30,30 L30,20 Z" fill="none" stroke="#D6B355" stroke-width="3" />
      <path d="M35,20 L35,40 L55,40 L55,20 Z" fill="none" stroke="#D6B355" stroke-width="3" />
      <path d="M60,20 L60,50 L80,50 L80,20 Z" fill="none" stroke="#D6B355" stroke-width="3" />
      
      <path d="M20,45 L20,65 L40,65 L40,45 Z" fill="none" stroke="#D6B355" stroke-width="3" />
      <path d="M45,45 L45,75 L75,75 L75,45 Z" fill="none" stroke="#D6B355" stroke-width="3" />
      
      <path d="M20,70 L20,80 L30,80 L30,70 Z" fill="none" stroke="#D6B355" stroke-width="3" />
      <path d="M35,80 L55,80 L55,70 L35,70 Z" fill="none" stroke="#D6B355" stroke-width="3" />
      <path d="M80,70 L60,70 L60,80 L80,80 Z" fill="none" stroke="#D6B355" stroke-width="3" />
    </pattern>
  </defs>
  
  <rect width="100" height="100" fill="url(#palmar-pattern-gold)" />
</svg> 