<svg xmlns="http://www.w3.org/2000/svg" width="100" height="100" viewBox="0 0 100 100">
  <defs>
    <pattern id="palmar-pattern-red" patternUnits="userSpaceOnUse" width="100" height="100">
      <rect width="100" height="100" fill="transparent" />
      
      <!-- Diamond pattern inspired by the image -->
      <path d="M50,10 L60,25 L50,40 L40,25 Z" fill="none" stroke="#C13E38" stroke-width="3" />
      <path d="M50,35 L65,50 L50,65 L35,50 Z" fill="none" stroke="#C13E38" stroke-width="3" />
      <path d="M50,60 L60,75 L50,90 L40,75 Z" fill="none" stroke="#C13E38" stroke-width="3" />
      
      <path d="M15,50 L25,60 L15,70 L5,60 Z" fill="none" stroke="#C13E38" stroke-width="3" />
      <path d="M85,50 L95,60 L85,70 L75,60 Z" fill="none" stroke="#C13E38" stroke-width="3" />
      
      <path d="M25,25 L35,35 L25,45 L15,35 Z" fill="none" stroke="#C13E38" stroke-width="3" />
      <path d="M75,25 L85,35 L75,45 L65,35 Z" fill="none" stroke="#C13E38" stroke-width="3" />
      <path d="M25,75 L35,85 L25,95 L15,85 Z" fill="none" stroke="#C13E38" stroke-width="3" />
      <path d="M75,75 L85,85 L75,95 L65,85 Z" fill="none" stroke="#C13E38" stroke-width="3" />
    </pattern>
  </defs>
  
  <rect width="100" height="100" fill="url(#palmar-pattern-red)" />
</svg> 